<?xml version="1.0" encoding="UTF-8" standalone="no"?>
<!-- Created with Inkscape (http://www.inkscape.org/) -->

<svg
   width="20"
   height="20"
   viewBox="0 0 5.2916665 5.2916666"
   version="1.1"
   id="svg8"
   inkscape:version="1.1.2 (0a00cf5339, 2022-02-04, custom)"
   sodipodi:docname="ViewZoom1To1.svg"
   xmlns:inkscape="http://www.inkscape.org/namespaces/inkscape"
   xmlns:sodipodi="http://sodipodi.sourceforge.net/DTD/sodipodi-0.dtd"
   xmlns="http://www.w3.org/2000/svg"
   xmlns:svg="http://www.w3.org/2000/svg"
   xmlns:rdf="http://www.w3.org/1999/02/22-rdf-syntax-ns#"
   xmlns:cc="http://creativecommons.org/ns#"
   xmlns:dc="http://purl.org/dc/elements/1.1/">
  <defs
     id="defs2" />
  <sodipodi:namedview
     id="base"
     pagecolor="#ffffff"
     bordercolor="#666666"
     borderopacity="1.0"
     inkscape:pageopacity="0.0"
     inkscape:pageshadow="2"
     inkscape:zoom="31.659099"
     inkscape:cx="5.732949"
     inkscape:cy="11.007894"
     inkscape:document-units="px"
     inkscape:current-layer="ForwardPlayback"
     showgrid="true"
     units="px"
     inkscape:window-width="1920"
     inkscape:window-height="1137"
     inkscape:window-x="-8"
     inkscape:window-y="-8"
     inkscape:window-maximized="1"
     inkscape:pagecheckerboard="0"
     inkscape:snap-bbox="true"
     inkscape:bbox-nodes="true">
    <inkscape:grid
       type="xygrid"
       id="grid4526"
       empspacing="10" />
  </sodipodi:namedview>
  <metadata
     id="metadata5">
    <rdf:RDF>
      <cc:Work
         rdf:about="">
        <dc:format>image/svg+xml</dc:format>
        <dc:type
           rdf:resource="http://purl.org/dc/dcmitype/StillImage" />
      </cc:Work>
    </rdf:RDF>
  </metadata>
  <g
     inkscape:label="Layer 1"
     inkscape:groupmode="layer"
     id="layer1"
     transform="translate(0,-291.70831)">
    <g
       id="ForwardPlayback"
       inkscape:label="#g4524"
       inkscape:export-xdpi="96"
       inkscape:export-ydpi="96">
      <path
         id="path5784"
         style="opacity:1;fill:#f0f0f0;fill-opacity:1;stroke:none;stroke-width:0.748356;stroke-miterlimit:4;stroke-dasharray:none;stroke-opacity:1"
         d="M 1.0583333,294.61873 H 0.52919702 l -5e-7,2.11666 H 1.0583328 Z"
         sodipodi:nodetypes="ccccc" />
      <path
         id="path5786"
         style="opacity:1;fill:#f0f0f0;fill-opacity:1;stroke:none;stroke-width:0.748353;stroke-miterlimit:4;stroke-dasharray:none;stroke-opacity:1"
         d="M 2.1166666,294.61873 H 1.5875268 l -4e-7,2.11666 h 0.5291398 z"
         sodipodi:nodetypes="ccccc" />
      <path
         id="path6138"
         style="fill:#f0f0f0;fill-opacity:1;stroke:none;stroke-width:2"
         d="M 12,1 A 5.0000086,4.9999897 76.678958 0 0 9.5,1.6699219 5.0000086,4.9999897 76.678958 0 0 7.6699219,8.5 5.0000086,4.9999897 76.678958 0 0 13.582031,10.740234 l 3.552735,6.152344 1.730468,-1 -3.550781,-6.1523436 A 5.0000086,4.9999897 76.678958 0 0 16.330078,3.5 5.0000086,4.9999897 76.678958 0 0 12,1 Z m 0,2 A 3,3 0 0 1 15,6 3,3 0 0 1 12,9 3,3 0 0 1 9,6 3,3 0 0 1 12,3 Z"
         transform="matrix(0.26458333,0,0,0.26458333,0,291.70831)" />
    </g>
  </g>
</svg>
